<svg viewBox="0 0 256 256" xmlns="http://www.w3.org/2000/svg" role="img" aria-label="skills">
  <defs>
    <linearGradient id="bgsk" x1="0.2" y1="0" x2="0.8" y2="1">
      <stop offset="0" stop-color="#2A3850"/><stop offset="1" stop-color="#1A2433"/></linearGradient>
    <linearGradient id="hexFsk" x1="0" y1="0" x2="0" y2="1">
      <stop offset="0" stop-color="#33425C" stop-opacity="0.55"/><stop offset="1" stop-color="#33425C" stop-opacity="0.10"/></linearGradient>
    <linearGradient id="panelFsk" x1="0" y1="0" x2="0" y2="1">
      <stop offset="0" stop-color="#F3F7FC"/><stop offset="1" stop-color="#DEE8F4"/></linearGradient>
  </defs>
  <rect width="256" height="256" rx="60" fill="url(#bgsk)"/>
  <g transform="translate(128,128) scale(1.2) translate(-128,-128)">
  <polygon points="228.0,128.0 178.0,214.6 78.0,214.6 28.0,128.0 78.0,41.4 178.0,41.4" fill="url(#hexFsk)"/>
  <polygon points="228.0,128.0 178.0,214.6 78.0,214.6 28.0,128.0 78.0,41.4 178.0,41.4" fill="none" stroke="#E0A22B" stroke-opacity="0.60" stroke-width="2"/>
  <polygon points="206.0,128.0 167.0,195.5 89.0,195.5 50.0,128.0 89.0,60.5 167.0,60.5" fill="none" stroke="#E0A22B" stroke-opacity="0.28" stroke-width="1.5"/>
  <g transform="translate(0,6)">
    <rect x="76" y="61" width="104" height="128" rx="18" fill="#0B0F17" opacity="0.45"/>
    <rect x="76" y="58" width="104" height="128" rx="18" fill="url(#panelFsk)" stroke="#FFFFFF" stroke-opacity="0.90" stroke-width="1.5"/>
    <rect x="76" y="58" width="104" height="58" rx="18" fill="#FFFFFF" fill-opacity="0.40"/>
    <g stroke="#8E9BB2" stroke-opacity="0.65" stroke-width="1.4">
      <line x1="104" y1="104" x2="128" y2="92"/><line x1="104" y1="104" x2="128" y2="122"/><line x1="104" y1="104" x2="128" y2="152"/>
      <line x1="104" y1="140" x2="128" y2="92"/><line x1="104" y1="140" x2="128" y2="122"/><line x1="104" y1="140" x2="128" y2="152"/>
      <line x1="128" y1="92" x2="152" y2="104"/><line x1="128" y1="92" x2="152" y2="140"/>
      <line x1="128" y1="122" x2="152" y2="104"/><line x1="128" y1="122" x2="152" y2="140"/>
      <line x1="128" y1="152" x2="152" y2="104"/><line x1="128" y1="152" x2="152" y2="140"/>
    </g>
    <g fill="#E0A22B">
      <circle cx="104" cy="104" r="5"/><circle cx="104" cy="140" r="5"/>
      <circle cx="128" cy="92" r="5"/><circle cx="128" cy="122" r="5.5"/><circle cx="128" cy="152" r="5"/>
      <circle cx="152" cy="104" r="5"/><circle cx="152" cy="140" r="5"/>
    </g>
  </g>
  </g>
  <rect x="1.5" y="1.5" width="253" height="253" rx="58.5" fill="none" stroke="#fff" stroke-opacity="0.42" stroke-width="2"/>
</svg>
